<?xml version="1.0" encoding="utf-8"?>
<svg viewBox="310.0918 235.3035 313.1428 43.2438" xmlns="http://www.w3.org/2000/svg">
  <defs>
    <clipPath clipPathUnits="userSpaceOnUse" id="clipPath16">
      <path d="M 0,595.28 H 841.89 V 0 H 0 Z" id="path14"/>
    </clipPath>
  </defs>
  <g id="g12" clip-path="url(#clipPath16)" transform="matrix(0.45283403992652893, 0, 0, -0.45283403992652893, 153.05860900878906, 408.3438110351563)" style="">
    <g id="g18" transform="translate(376.9209,215.3266)"/>
    <g id="g22" transform="translate(408.3153,226.0985)"/>
    <g id="g26" transform="translate(448.5385,221.212)"/>
    <g id="g30" transform="translate(470.6319,238.0365)"/>
    <g id="g34" transform="translate(339.6953,252.7266)"/>
    <g id="g38" transform="translate(370.2629,260.3749)"/>
    <g id="g42" transform="translate(396.924,248.9311)"/>
    <g id="g46" transform="translate(426.3257,260.3749)"/>
    <g id="g50" transform="translate(481.1078,264.1337)"/>
    <g id="g54" transform="translate(527.3041,272.8551)"/>
    <g id="g58" transform="translate(459.6498,276.0768)"/>
    <g id="g62" transform="translate(461.2429,314.0887)">
      <path d="m 0,0 c -0.255,0.189 -0.565,0.419 -0.921,0.683 -0.371,0.25 -0.705,0.625 -1.105,0.998 -0.391,0.383 -0.841,0.78 -1.211,1.291 -0.375,0.503 -0.854,0.983 -1.19,1.586 -0.339,0.599 -0.792,1.167 -1.062,1.843 -0.305,0.658 -0.639,1.318 -0.858,2.023 l -0.347,1.048 c -0.087,0.356 -0.173,0.711 -0.259,1.063 -0.2,0.699 -0.239,1.416 -0.355,2.093 -0.057,0.685 -0.112,1.349 -0.104,1.977 -0.004,0.629 0.017,1.222 0.076,1.767 0.084,1.091 0.289,1.982 0.43,2.599 0.149,0.617 0.285,0.954 0.285,0.954 0,0 -0.049,-0.359 -0.089,-0.986 -0.054,-0.624 -0.073,-1.521 -0.041,-2.586 0.006,-0.533 0.053,-1.107 0.1,-1.713 0.041,-0.605 0.157,-1.237 0.235,-1.891 0.139,-0.646 0.229,-1.322 0.425,-1.985 0.087,-0.334 0.175,-0.671 0.263,-1.009 l 0.347,-0.99 C -5.184,8.091 -4.877,7.461 -4.598,6.83 -4.344,6.187 -3.961,5.621 -3.661,5.035 -3.363,4.445 -2.95,3.954 -2.63,3.439 -2.31,2.92 -1.925,2.494 -1.592,2.079 -1.242,1.68 -0.974,1.258 -0.658,0.96 -0.354,0.648 -0.089,0.376 0.13,0.152 c 0.436,-0.453 0.679,-0.726 0.679,-0.726 0,0 -0.298,0.2 -0.809,0.574 m -17.74,-0.639 c -0.009,-0.492 -0.075,-0.965 -0.148,-1.411 -0.058,-0.447 -0.132,-0.865 -0.242,-1.245 -0.168,-0.768 -0.409,-1.378 -0.578,-1.801 -0.167,-0.423 -0.275,-0.658 -0.275,-0.658 0,0 0.022,0.263 0.082,0.71 0.031,0.221 0.07,0.49 0.114,0.799 0.023,0.31 0.048,0.66 0.076,1.041 0.044,0.377 0.049,0.79 0.061,1.223 0.02,0.433 0.024,0.889 0.008,1.361 0.003,0.472 -0.027,0.957 -0.063,1.451 -0.018,0.494 -0.073,0.994 -0.138,1.493 -0.094,1.002 -0.281,1.993 -0.448,2.925 -0.111,0.46 -0.178,0.917 -0.287,1.339 -0.102,0.425 -0.199,0.826 -0.288,1.197 -0.191,0.74 -0.346,1.365 -0.484,1.793 -0.13,0.434 -0.204,0.682 -0.204,0.682 0,0 0.612,-0.85 1.241,-2.284 0.326,-0.712 0.624,-1.576 0.898,-2.518 0.116,-0.475 0.259,-0.964 0.349,-1.472 0.083,-0.508 0.191,-1.022 0.241,-1.545 0.112,-1.043 0.162,-2.097 0.085,-3.08 m 51.609,19.953 c 0,0 -4.787,25.76 -37.388,13.136 -30.494,-11.808 -34.184,-16.67 -55.835,-10.276 0,0 16.023,3.203 15.412,15.714 0,0 -7.978,3.555 -15.758,-2.305 -2.693,-2.029 -4.85,-9.701 -8.185,-6.063 0,0 -4.051,6.458 0.404,11.216 2.79,2.979 9.802,8.185 4.244,15.763 0,0 -0.83,-5.827 -3.349,-7.943 -0.834,-0.701 -2.101,-0.565 -2.852,0.223 -1.064,1.117 -2.458,3.245 -2.277,6.631 0.288,5.4 -2.16,8.423 -2.16,8.423 0.046,-4.059 -0.649,-6.153 -1.458,-7.22 -0.841,-1.11 -2.355,-0.862 -3.297,0.164 -1.652,1.801 -3.668,9.072 -1.684,11.241 0,0 -10.104,1.415 0.405,-19.198 1.59,-3.119 3.031,-4.446 2.627,-10.913 0,0 -3.648,-0.273 -8.185,5.254 -1.15,1.401 -4.749,3.436 -4.749,7.781 0,4.804 -3.332,17.548 -12.732,14.146 0,0 8.24,-6.063 3.638,-13.439 -0.463,-0.741 -1.597,-0.709 -2.466,-0.623 -3.157,0.314 -9,4.101 -9.155,14.365 0,0 -13.339,-19.524 11.818,-24.434 0,0 6.452,-1.171 4.97,-5.341 0,0 -0.293,-3.581 -10.22,2.998 0,0 1.235,-15.155 16.618,-9.785 0,0 6.286,2.89 9.351,-0.522 3.065,-3.412 2.324,-4.648 -1.794,-8.769 -2.453,-2.453 -1.099,-6.743 -5.071,-10.042 -0.88,-0.731 -2.034,-2.279 -2.128,-3.419 -0.221,-2.684 3.907,-7.178 9.094,-6.366 1.988,0.311 3.129,2.403 6.063,3.739 1.213,0.552 6.091,-0.62 8.185,3.84 0.866,1.844 5.53,-3.599 6.608,-4.489 11.075,-9.153 19.26,-7.132 19.26,-7.132 0,0 -3.008,-8.785 -4.418,-9.748 -2.627,-1.795 -9.705,-4.065 0.78,-5.712 0,0 7.578,-3.536 7.214,2.464 -0.101,1.648 13.678,9.3 16.33,9.662 10.859,1.482 18.895,5.456 18.895,5.456 0,0 1.778,-3.13 1.718,-6.265 -0.019,-0.992 -1.368,-4.227 -1.92,-5.052 -1.27,-1.897 -11.115,-3.536 1.718,-6.366 6.176,-1.361 5.052,-1.414 5.76,3.84 0.496,3.687 14.449,15.864 19.199,16.471 0.729,0.093 -0.994,0.764 -1.725,1.52 3.349,3.558 5.415,8.337 5.415,13.609 0,0.771 -0.054,1.528 -0.14,2.276 0.444,0.896 1.352,1.573 3.22,1.49" style="fill:#000000;fill-opacity:1;fill-rule:nonzero;stroke:none" id="path64"/>
    </g>
  </g>
  <g id="Layer 1" transform="matrix(1.0821950435638428, 0, 0, 1.0821950435638428, 378.8749084472656, 237.7485961914063)" style="">
    <path id="GULUART" class="s0" aria-label="GULUART" d="m13.2 37.7q-6.9 0-9.6-3.2-1.8-2.3-1.8-6.2 0-1.8 0.4-4l1.7-9.8q2.3-13.1 16.1-13.1 5.7 0 8.6 2.4 3 2.4 3 6.6 0 1.8-0.5 3.5-0.5 1.8-0.9 2.7l-0.5 0.8h-8.7q1.3-1.7 1.3-4 0-4.4-3.7-4.4-4.9 0-5.9 5.7l-1.7 9.4q-0.2 1.3-0.2 2.6 0 3.4 3.9 3.4 4.1 0 5.2-4h-4l1-5.5h12.9l-0.7 4.2-0.3 1.5q-2 11.4-15.6 11.4zm43.8-3.2q-3.8 3.2-10.9 3.2-7.1 0-9.9-3.3-1.9-2.3-1.9-6.2 0-1.8 0.3-3.9l4-22.6h8.8l-3.9 22.4q-0.2 1.2-0.2 2.6 0 3.4 4.1 3.4 2.4 0 3.9-1.3 1.5-1.3 2.1-4.7l3.9-22.4h8.9l-4 22.6q-1.2 6.9-5.2 10.2zm33.3-5.1l-1.4 7.6h-22.3l6.2-35.3h8.8l-4.8 27.7zm26.5 5.1q-3.9 3.2-11 3.2-7.1 0-9.8-3.3-2-2.3-2-6.2 0-1.8 0.4-3.9l4-22.6h8.8l-4 22.4q-0.2 1.2-0.2 2.6 0 3.4 4.1 3.4 2.5 0 4-1.3 1.4-1.3 2-4.7l4-22.4h8.8l-4 22.6q-1.2 6.9-5.1 10.2zm36.3 2.5h-9.3l0.3-7.7h-8.2l-2.4 7.7h-9.4l12.6-35.3h16.2zm-8.2-26.7h-3.1l-3.9 12.5h6.4zm19.1-8.6h14.3q5.5 0 7.9 2.4 1.8 1.9 1.8 4.7 0 1-0.2 2.1l-0.7 3.8q-0.6 3.2-2.1 5.2-1.4 1.9-3.2 2.8l4.5 14.3h-9.9l-4.1-13.2h-3.1l-2 13.2h-9.4zm11.1 7.6h-3.6l-1.3 8.5h3.4q2.6 0 3.7-1.2 1.2-1.3 1.2-3.3 0-4-3.4-4zm50.7-7.6l-1.4 7.6h-12.1l-4.8 27.6h-8.9l4.9-27.6h-12.1l1.3-7.6z"/>
  </g>
</svg>