<svg version="1.2" xmlns="http://www.w3.org/2000/svg" viewBox="0 0 265 38" width="265" height="38">
	<title>新建项目</title>
	<style>
		.s0 { fill: #000000 } 
	</style>
	<g id="Layer 1">
		<path id="GULUART" class="s0" aria-label="GULUART"  d="m13.2 37.7q-6.9 0-9.6-3.2-1.8-2.3-1.8-6.2 0-1.8 0.4-4l1.7-9.8q2.3-13.1 16.1-13.1 5.7 0 8.6 2.4 3 2.4 3 6.6 0 1.8-0.5 3.5-0.5 1.8-0.9 2.7l-0.5 0.8h-8.7q1.3-1.7 1.3-4 0-4.4-3.7-4.4-4.9 0-5.9 5.7l-1.7 9.4q-0.2 1.3-0.2 2.6 0 3.4 3.9 3.4 4.1 0 5.2-4h-4l1-5.5h12.9l-0.7 4.2-0.3 1.5q-2 11.4-15.6 11.4zm43.8-3.2q-3.8 3.2-10.9 3.2-7.1 0-9.9-3.3-1.9-2.3-1.9-6.2 0-1.8 0.3-3.9l4-22.6h8.8l-3.9 22.4q-0.2 1.2-0.2 2.6 0 3.4 4.1 3.4 2.4 0 3.9-1.3 1.5-1.3 2.1-4.7l3.9-22.4h8.9l-4 22.6q-1.2 6.9-5.2 10.2zm33.3-5.1l-1.4 7.6h-22.3l6.2-35.3h8.8l-4.8 27.7zm26.5 5.1q-3.9 3.2-11 3.2-7.1 0-9.8-3.3-2-2.3-2-6.2 0-1.8 0.4-3.9l4-22.6h8.8l-4 22.4q-0.2 1.2-0.2 2.6 0 3.4 4.1 3.4 2.5 0 4-1.3 1.4-1.3 2-4.7l4-22.4h8.8l-4 22.6q-1.2 6.9-5.1 10.2zm36.3 2.5h-9.3l0.3-7.7h-8.2l-2.4 7.7h-9.4l12.6-35.3h16.2zm-8.2-26.7h-3.1l-3.9 12.5h6.4zm19.1-8.6h14.3q5.5 0 7.9 2.4 1.8 1.9 1.8 4.7 0 1-0.2 2.1l-0.7 3.8q-0.6 3.2-2.1 5.2-1.4 1.9-3.2 2.8l4.5 14.3h-9.9l-4.1-13.2h-3.1l-2 13.2h-9.4zm11.1 7.6h-3.6l-1.3 8.5h3.4q2.6 0 3.7-1.2 1.2-1.3 1.2-3.3 0-4-3.4-4zm50.7-7.6l-1.4 7.6h-12.1l-4.8 27.6h-8.9l4.9-27.6h-12.1l1.3-7.6z"/>
	</g>
</svg>