<?xml version="1.0" encoding="utf-8"?>
<svg viewBox="182.2594 63.5802 220.9533 268.8426" xmlns="http://www.w3.org/2000/svg">
  <rect x="-67.737" y="-72.617" width="165.715" height="201.632" style="" transform="matrix(1.3333330154418945, 0, 0, 1.3333330154418945, 272.5753945532197, 160.40283015210298)"/>
  <path d="M 67.075 -56.007 C 66.765 -55.78 66.377 -55.497 65.943 -55.174 C 65.493 -54.867 65.085 -54.404 64.594 -53.947 C 64.116 -53.481 63.562 -52.992 63.105 -52.362 C 62.647 -51.746 62.06 -51.158 61.654 -50.421 C 61.234 -49.687 60.677 -48.988 60.342 -48.163 C 59.972 -47.36 59.56 -46.551 59.3 -45.685 L 58.868 -44.398 C 58.759 -43.961 58.659 -43.528 58.555 -43.091 C 58.309 -42.238 58.263 -41.363 58.116 -40.53 C 58.044 -39.692 57.978 -38.876 57.983 -38.111 C 57.983 -37.335 58.012 -36.609 58.084 -35.942 C 58.181 -34.607 58.442 -33.512 58.607 -32.761 C 58.791 -31.997 58.958 -31.59 58.958 -31.59 C 58.958 -31.59 58.897 -32.027 58.848 -32.793 C 58.79 -33.565 58.759 -34.652 58.808 -35.97 C 58.808 -36.624 58.863 -37.33 58.925 -38.067 C 58.974 -38.806 59.121 -39.582 59.215 -40.387 C 59.38 -41.174 59.493 -42.008 59.734 -42.821 C 59.84 -43.229 59.948 -43.637 60.062 -44.051 L 60.483 -45.264 C 60.724 -46.093 61.099 -46.869 61.433 -47.637 C 61.756 -48.428 62.221 -49.117 62.585 -49.839 C 62.952 -50.562 63.456 -51.158 63.844 -51.79 C 64.239 -52.432 64.716 -52.954 65.122 -53.465 C 65.555 -53.947 65.886 -54.469 66.262 -54.833 C 66.638 -55.213 66.967 -55.549 67.23 -55.823 C 67.769 -56.377 68.063 -56.72 68.063 -56.72 C 68.063 -56.72 67.699 -56.467 67.075 -56.007 M 45.337 -56.792 C 45.324 -57.4 45.247 -57.974 45.147 -58.522 C 45.082 -59.067 44.993 -59.584 44.859 -60.042 C 44.639 -60.985 44.363 -61.731 44.143 -62.252 C 43.936 -62.767 43.812 -63.064 43.812 -63.064 C 43.812 -63.064 43.83 -62.741 43.911 -62.195 C 43.944 -61.921 44.001 -61.585 44.047 -61.213 C 44.078 -60.833 44.11 -60.401 44.143 -59.934 C 44.192 -59.478 44.2 -58.962 44.218 -58.437 C 44.249 -57.905 44.249 -57.349 44.229 -56.765 C 44.229 -56.186 44.192 -55.601 44.153 -54.985 C 44.123 -54.384 44.053 -53.768 43.977 -53.168 C 43.869 -51.935 43.641 -50.713 43.437 -49.573 C 43.301 -49.014 43.217 -48.454 43.078 -47.934 C 42.959 -47.416 42.837 -46.915 42.727 -46.468 C 42.492 -45.563 42.307 -44.801 42.13 -44.266 C 41.979 -43.74 41.881 -43.438 41.881 -43.438 C 41.881 -43.438 42.639 -44.475 43.404 -46.24 C 43.797 -47.106 44.167 -48.163 44.511 -49.319 C 44.639 -49.899 44.821 -50.496 44.935 -51.126 C 45.038 -51.746 45.161 -52.375 45.231 -53.019 C 45.369 -54.295 45.431 -55.581 45.337 -56.792 M 108.587 -32.343 C 108.587 -32.343 102.713 -0.771 62.766 -16.246 C 25.394 -30.711 20.869 -36.67 -5.672 -28.828 C -5.672 -28.828 13.97 -24.906 13.215 -9.578 C 13.215 -9.578 3.444 -5.213 -6.083 -12.396 C -9.392 -14.886 -12.033 -24.29 -16.125 -19.829 C -16.125 -19.829 -21.092 -11.913 -15.627 -6.084 C -12.202 -2.433 -3.613 3.951 -10.426 13.235 C -10.426 13.235 -11.447 6.097 -14.534 3.499 C -15.549 2.641 -17.101 2.807 -18.02 3.768 C -19.326 5.148 -21.035 7.746 -20.818 11.899 C -20.458 18.524 -23.465 22.221 -23.465 22.221 C -23.403 17.25 -24.261 14.687 -25.244 13.37 C -26.275 12.007 -28.138 12.314 -29.292 13.579 C -31.315 15.781 -33.782 24.692 -31.352 27.349 C -31.352 27.349 -43.735 29.081 -30.864 3.82 C -28.909 -0.006 -27.148 -1.629 -27.642 -9.552 C -27.642 -9.552 -32.115 -9.884 -37.665 -3.111 C -39.084 -1.392 -43.483 1.1 -43.483 6.421 C -43.483 12.306 -47.574 27.931 -59.093 23.761 C -59.093 23.761 -49 16.324 -54.638 7.292 C -55.197 6.377 -56.59 6.421 -57.653 6.521 C -61.532 6.917 -68.688 11.552 -68.872 24.133 C -68.872 24.133 -85.227 0.203 -54.388 -5.815 C -54.388 -5.815 -46.485 -7.254 -48.299 -12.353 C -48.299 -12.353 -48.657 -16.749 -60.83 -8.687 C -60.83 -8.687 -59.315 -27.258 -40.464 -20.676 C -40.464 -20.676 -32.76 -17.137 -28.999 -21.317 C -25.244 -25.501 -26.148 -27.013 -31.2 -32.059 C -34.211 -35.071 -32.549 -40.321 -37.417 -44.369 C -38.499 -45.264 -39.909 -47.168 -40.019 -48.564 C -40.293 -51.852 -35.229 -57.351 -28.876 -56.369 C -26.445 -55.983 -25.046 -53.424 -21.449 -51.783 C -19.967 -51.101 -13.985 -52.541 -11.42 -47.068 C -10.353 -44.814 -4.638 -51.485 -3.319 -52.579 C 10.253 -63.796 20.285 -61.316 20.285 -61.316 C 20.285 -61.316 16.597 -72.083 14.869 -73.26 C 11.648 -75.468 2.98 -78.242 15.824 -80.265 C 15.824 -80.265 25.114 -84.601 24.664 -77.249 C 24.553 -75.227 41.431 -65.851 44.678 -65.406 C 57.983 -63.579 67.846 -58.718 67.846 -58.718 C 67.846 -58.718 70.018 -62.545 69.947 -66.394 C 69.921 -67.614 68.267 -71.572 67.59 -72.59 C 66.037 -74.914 53.962 -76.912 69.697 -80.395 C 77.266 -82.054 75.885 -82.116 76.756 -75.68 C 77.367 -71.164 94.465 -56.239 100.283 -55.497 C 101.184 -55.378 99.068 -54.564 98.171 -53.629 C 102.276 -49.27 104.808 -43.418 104.808 -36.955 C 104.808 -36.003 104.738 -35.08 104.635 -34.166 C 105.18 -33.062 106.289 -32.239 108.587 -32.343" style="fill-opacity: 1; fill-rule: nonzero; stroke: none; fill: rgb(255, 255, 255); transform-origin: 17.691px -27.0804px;" id="path64" transform="matrix(0, 1.333333015442, 1.333333015442, 0, 278.47238765729, 223.59037472694)"/>
</svg>