<svg version="1.2" xmlns="http://www.w3.org/2000/svg" viewBox="0 0 1520 216" width="1520" height="216">
	<title>新建项目</title>
	<style>
		.s0 { fill: #000000 } 
	</style>
	<g id="Layer 1">
		<path id="A R T I C L E" class="s0" aria-label="A R T I C L E"  d="m209.6 207h-46.6l1.5-38.5h-41l-12 38.5h-46.9l63.1-176.6h80.9zm-41.2-133.7h-15.5l-19.3 62.3h32.1zm154.5-42.9h71.2q27.9 0 39.7 12.2 8.9 9.4 8.9 23.6 0 4.9-1 10.3l-3.5 19.1q-2.9 16-10.3 25.8-7.1 9.8-15.9 14l22.3 71.6h-49.5l-20.6-66h-15.3l-10 66h-47.1zm55.7 38.3h-18.4l-6.4 42.6h17.2q13 0 18.6-6.1 5.7-6.4 5.7-16.7 0-19.8-16.7-19.8zm314.7-38.3l-6.9 38.3h-60.3l-24.3 138.3h-44.4l24.3-138.3h-60.6l6.9-38.3zm79 0h44.1l-30.9 176.6h-44.4zm168.8 180.1q-35.1 0-48.6-15.3-9.3-10.7-9.3-30.1 0-8.4 1.7-17.9l10-56.4q11.1-62.1 79.8-62.1 28.4 0 43.1 12.3 14.8 12 14.8 33.1 0 9.8-3 19.6-2.7 9.6-5.4 14.2l-2.7 4.9h-43.4q8.1-9.3 8.1-26.5 0-9-4.7-14.2-4.6-5.4-13.7-5.4-24.8 0-29.4 27.5l-8.6 49.5q-1.2 6.4-1.2 12.5 0 16.2 19.3 16.2 23.3 0 28-26.2h44.2l-1.3 7.1q-9.8 57.2-77.7 57.2zm274.2-41.7l-6.9 38.2h-111.8l31.1-176.6h44.2l-24.3 138.4zm201.6 0l-6.8 38.2h-123.2l31.2-176.6h123.1l-6.8 38.3h-79l-5.7 33.1h65.3l-6.9 38.3h-65.2l-4.9 28.7z"/>
	</g>
</svg>