<svg version="1.2" xmlns="http://www.w3.org/2000/svg" viewBox="0 0 1520 216" width="1520" height="216">
	<title>新建项目</title>
	<style>
		.s0 { fill: #000000 } 
	</style>
	<g id="Layer 1">
		<path id="P R O D U C T" class="s0" aria-label="P R O D U C T"  d="m92.6 153.3h-29.2l-9.6 53.7h-44.1l31.1-176.6h74.8q27.7 0 39.5 12.7 8.6 9.9 8.6 25.1 0 5.1-1 10.8l-4.9 27.7q-3.7 20.3-21.6 33.6-17.9 13-43.6 13zm7.6-84.6h-22.1l-8.1 46.3h21.8q20.2 0 23.3-17.9l1.8-10.1q0.4-2.2 0.4-5.8 0-3.7-3.6-8.1-3.7-4.4-13.5-4.4zm156-38.3h71.1q28 0 39.8 12.2 8.8 9.4 8.8 23.6 0 4.9-1 10.3l-3.4 19.1q-3 16-10.3 25.8-7.1 9.8-16 14l22.4 71.6h-49.6l-20.6-66h-15.2l-10.1 66h-47.1zm55.7 38.3h-18.4l-6.4 42.6h17.2q13 0 18.7-6.1 5.6-6.4 5.6-16.7 0-19.8-16.7-19.8zm228.4-40q59.1 0 59.1 48.3 0 8.1-1.7 17.4l-8.6 49.1q-5.9 34.1-25.5 50.5-19.6 16.5-55.2 16.5-35.6 0-49.5-16.5-9.6-11.3-9.6-31.1 0-8.9 1.9-19.4l8.6-49.1q11.6-65.7 80.5-65.7zm-25.3 143.7q12.3 0 19.7-6.3 7.3-6.4 10.3-23.6l8.3-47.1q0.7-4.9 0.7-8.8 0-19.9-20.1-19.9-25.3 0.5-30.2 28.7l-8.3 47.1q-1 6.1-1 12.8 0 17.1 20.6 17.1zm182.8-142h68.7q32.1 0 45.8 16.2 10.1 12.3 10.1 30.7 0 6.6-1.2 13.9l-9.6 54.7q-4.9 27.8-24 44.4-19.2 16.7-49.6 16.7h-71.4zm53.3 38.3h-16l-17.4 100.1h23.3q11.5 0 17.9-6.2 6.6-6.3 9.1-20.6l7.1-40.2q1-5.4 1-9.8 0-23.3-25-23.3zm260.2 125.6q-19.4 16.2-54.9 16.2-35.6 0-49.3-16.5-9.8-11.3-9.8-31.1 0-8.9 1.9-19.4l19.9-113.1h44.1l-19.8 112.1q-1 6.2-1 12.8 0 17.1 20.6 17.1 12.3 0 19.6-6.3 7.4-6.4 10.3-23.6l19.9-112.1h44.1l-19.8 113.1q-6.2 34.3-25.8 50.8zm168.8 16.2q-35.1 0-48.6-15.2-9.3-10.8-9.3-30.2 0-8.4 1.7-17.9l10.1-56.4q11-62.1 79.7-62.1 28.4 0 43.2 12.3 14.7 12 14.7 33.1 0 9.8-3 19.6-2.7 9.6-5.4 14.2l-2.7 4.9h-43.4q8.1-9.3 8.1-26.5 0-9-4.6-14.2-4.7-5.4-13.8-5.4-24.8 0-29.4 27.5l-8.6 49.5q-1.2 6.4-1.2 12.6 0 16.1 19.4 16.1 23.3 0 27.9-26.2h44.2l-1.3 7.1q-9.8 57.2-77.7 57.2zm337.3-180.1l-6.9 38.3h-60.3l-24.3 138.3h-44.4l24.3-138.3h-60.6l6.8-38.3z"/>
	</g>
</svg>